<svg width="194" height="85" viewBox="0 0 194 85" fill="none" xmlns="http://www.w3.org/2000/svg">
<path d="M8.48879 59.0555V24.7478H11.6439V59.0555H8.48879ZM39.9275 59.0555C35.8709 59.4149 32.9412 59.5946 31.1382 59.5946C27.1943 59.5946 24.0579 58.9574 21.7291 57.6831C19.4003 56.4089 18.2359 54.1053 18.2359 50.7726V46.7047C18.2359 43.47 19.5318 41.2972 22.1235 40.1862C23.363 39.6308 24.9406 39.3531 26.8562 39.3531C28.6216 39.3531 30.4058 39.6046 32.2087 40.1078C34.0117 40.6175 35.5329 41.2808 36.7724 42.0977C36.7724 40.3006 36.1714 38.8695 34.9695 37.8043C33.7675 36.7457 31.4575 36.2164 28.0394 36.2164L28.2084 34.1089C31.8143 34.1089 34.4699 34.6055 36.1752 35.5988C37.888 36.5986 38.9397 37.7847 39.3303 39.157C39.7285 40.5293 39.9275 42.2937 39.9275 44.4502V59.0555ZM36.7724 44.2051C35.2324 43.5843 33.5872 43.0452 31.8369 42.5878C30.094 42.1303 28.4901 41.9016 27.0253 41.9016C23.2316 41.9016 21.3347 43.5517 21.3347 46.8517V51.1157C21.3347 53.2395 22.1799 54.7817 23.8701 55.7423C25.5604 56.7095 27.9643 57.193 31.0819 57.193C32.697 57.193 34.5939 57.0623 36.7724 56.801V44.2051ZM64.4363 51.3607C64.4363 53.0271 64.0419 54.4321 63.2531 55.5757C62.4643 56.7193 61.3938 57.5851 60.0416 58.1733C58.8396 58.696 57.6264 59.0718 56.4019 59.3005C55.1849 59.5292 53.8815 59.6436 52.4918 59.6436C51.102 59.6436 49.1864 59.5292 46.7449 59.3005L43.6461 59.0555V24.7478H46.8013V35.8243C47.7027 35.2688 48.7995 34.8441 50.0916 34.55C51.3912 34.2559 52.7359 34.1089 54.1257 34.1089C56.2667 34.1089 58.1072 34.4193 59.6472 35.0401C62.8399 36.3144 64.4363 38.6669 64.4363 42.0977V51.3607ZM61.3375 42.2447C61.3375 40.2516 60.6689 38.8041 59.3317 37.9023C58.002 37.0071 56.2855 36.5594 54.182 36.5594C52.905 36.5594 51.6091 36.713 50.2945 37.0201C48.9798 37.3338 47.8154 37.7357 46.8013 38.2258V56.7029C49.0174 56.997 50.8391 57.144 52.2664 57.144C58.3138 57.144 61.3375 55.2326 61.3375 51.4097V42.2447ZM87.1308 57.3401C85.7786 58.0916 84.2385 58.6634 82.5107 59.0555C80.7829 59.4475 79.0551 59.6436 77.3273 59.6436C74.5477 59.6436 72.3429 59.0457 70.7127 57.8498C69.0751 56.6605 68.2562 54.8732 68.2562 52.488V42.4407C68.2562 39.7942 69.2065 37.7357 71.1071 36.2654C73.0002 34.795 75.5056 34.0599 78.6231 34.0599C81.7407 34.0599 84.1747 34.7852 85.925 36.236C87.6679 37.6932 88.5393 39.7125 88.5393 42.2937V48.6651L71.4114 49.4983V52.488C71.4114 54.0563 71.9936 55.2326 73.158 56.0168C74.3224 56.801 75.8436 57.193 77.7217 57.193C80.351 57.193 83.0741 56.5396 85.8912 55.2326L87.1308 57.3401ZM85.3842 41.9506C85.3842 39.9249 84.6517 38.4937 83.1868 37.6573C81.7219 36.8274 80.1819 36.4124 78.5668 36.4124C76.5009 36.4124 74.7919 36.9025 73.4397 37.8827C72.0875 38.8629 71.4114 40.3986 71.4114 42.4898V46.8027L85.3842 46.2146V41.9506ZM95.1313 59.0555V24.7478H97.7141V59.0555H95.1313ZM107.188 59.0555V32.1485C107.188 29.4365 107.977 27.4434 109.555 26.1691C111.132 24.8948 113.086 24.2577 115.414 24.2577C116.128 24.2577 116.823 24.3067 117.499 24.4047L116.992 26.8063C116.316 26.7409 115.828 26.7082 115.527 26.7082C112.071 26.7082 110.344 28.5216 110.344 32.1485V34.501H116.767L115.414 37.0986H110.344V59.0555H107.188ZM122.401 59.0555V24.7478H125.556V59.0555H122.401ZM155.462 50.0374C155.462 52.7821 154.598 55.0529 152.87 56.85C151.143 58.647 148.532 59.5456 145.039 59.5456C141.546 59.5456 138.909 58.6405 137.129 56.8304C135.341 55.0137 134.447 52.7494 134.447 50.0374V43.568C134.447 40.464 135.359 38.0853 137.185 36.432C139.003 34.7852 141.621 33.9619 145.039 33.9619C148.307 33.9619 150.861 34.8179 152.701 36.53C154.542 38.2487 155.462 40.5947 155.462 43.568V50.0374ZM152.307 43.568C152.307 41.1175 151.661 39.3204 150.369 38.1768C149.069 37.0332 147.293 36.4614 145.039 36.4614C142.71 36.4614 140.888 37.0332 139.574 38.1768C138.259 39.3204 137.602 41.1175 137.602 43.568V50.5276C137.602 52.488 138.27 54.0727 139.608 55.2816C140.937 56.4905 142.748 57.095 145.039 57.095C147.368 57.095 149.163 56.4971 150.425 55.3012C151.68 54.1119 152.307 52.5207 152.307 50.5276V43.568ZM180.929 59.0555L175.238 39.206L169.491 59.0555H165.153L156.533 34.501H159.857L167.35 56.2128L173.717 34.501H176.928L183.126 56.2128L190.676 34.501H194L185.267 59.0555H180.929Z" fill="#2B3674"/>
<path d="M97.7141 27.2507V0H0V85H97.7141V57.7493H95.1203V82.7438H2.59372V2.25624H95.1203V27.2507H97.7141Z" fill="#2B3674"/>
</svg>
